<?xml version="1.0" encoding="utf-8"?>
<!-- Generator: Adobe Illustrator 23.0.0, SVG Export Plug-In . SVG Version: 6.00 Build 0)  -->
<svg version="1.1" id="Capa_1" xmlns="http://www.w3.org/2000/svg" xmlns:xlink="http://www.w3.org/1999/xlink" x="0px" y="0px"
	 viewBox="0 0 38.1 38.1" style="enable-background:new 0 0 38.1 38.1;" xml:space="preserve">
<style type="text/css">
	.st0{fill:#008FD5;}
	.st1{fill:#FFFFFF;}
</style>
<g>
	<path class="st0" d="M19.1,37.4C9,37.4,0.8,29.2,0.8,19.1C0.8,9,9,0.8,19.1,0.8c10.1,0,18.3,8.2,18.3,18.3
		C37.4,29.2,29.2,37.4,19.1,37.4z"/>
	<path class="st0" d="M19.1,1.3c9.8,0,17.8,8,17.8,17.8s-8,17.8-17.8,17.8s-17.8-8-17.8-17.8S9.3,1.3,19.1,1.3 M19.1,0.3
		C8.7,0.3,0.3,8.7,0.3,19.1s8.4,18.8,18.8,18.8s18.8-8.4,18.8-18.8S29.5,0.3,19.1,0.3L19.1,0.3z"/>
</g>
<polygon class="st1" points="8.7,24.9 22.1,12.1 25.9,16 12.5,28.8 "/>
<path class="st1" d="M28.3,13.6c-0.1-0.1-3.8-3.9-3.8-3.9s2.7-2.6,2.9-2.8c0.5-0.4,1.2-0.3,1.7,0.1c0.2,0,1.9,1.8,2.1,2
	c0.5,0.5,0.4,1.4-0.1,1.9C30.7,11.3,28.6,13.3,28.3,13.6z"/>
<path class="st1" d="M8.1,25.6l3.8,3.9c-0.6,0.1-5,1-5,1S8.1,25.6,8.1,25.6z"/>
<rect x="24.6" y="10.1" transform="matrix(0.7213 -0.6926 0.6926 0.7213 -1.8571 21.0359)" class="st1" width="1.2" height="5.5"/>
</svg>
