<?xml version="1.0" encoding="utf-8"?>
<!-- Generator: Adobe Illustrator 23.0.0, SVG Export Plug-In . SVG Version: 6.00 Build 0)  -->
<svg version="1.1" id="katman_1" xmlns="http://www.w3.org/2000/svg" xmlns:xlink="http://www.w3.org/1999/xlink" x="0px" y="0px"
	 viewBox="0 0 512 512" style="enable-background:new 0 0 512 512;" xml:space="preserve">
<style type="text/css">
	.st0{fill:#FF0033;}
	.st1{fill:#FFFFFF;}
</style>
<g>
	<g>
		<circle class="st0" cx="256" cy="256" r="250"/>
	</g>
	<g>
		<path class="st1" d="M378.7,134.3h-80.6V120c0-7.7-6.3-14-14-14H228c-7.7,0-14,6.3-14,14v14.2h-80.6c-3.9,0-7.1,3.2-7.1,7.1
			c0,3.9,3.2,7.1,7.1,7.1h13.1l8.9,232.3c0.5,14.2,12.1,25.4,26.3,25.4h148.7c14.2,0,25.8-11.1,26.3-25.4l8.9-232.3h13.1
			c3.9,0,7.1-3.2,7.1-7.1S382.6,134.3,378.7,134.3z M228,120.1h56v14.1h-56V120.1z M342.6,380.1c-0.3,6.6-5.6,11.8-12.2,11.8H181.6
			c-6.6,0-12-5.2-12.2-11.8l-8.9-231.7h191L342.6,380.1z"/>
		<path class="st1" d="M206,205.5h-0.1c-3.9,0.1-7,3.3-6.9,7.2l2.2,115.2c0.1,3.9,3.2,6.9,7.1,6.9h0.1c3.9-0.1,7-3.3,6.9-7.2
			L213,212.4C212.9,208.5,209.8,205.5,206,205.5z"/>
		<path class="st1" d="M256,205.5c-3.9,0-7.1,3.2-7.1,7.1v115.2c0,3.9,3.2,7.1,7.1,7.1c3.9,0,7.1-3.2,7.1-7.1V212.5
			C263.1,208.6,259.9,205.5,256,205.5z"/>
		<path class="st1" d="M303.7,334.8h0.1c3.8,0,7-3.1,7.1-6.9l2.2-115.2c0.1-3.9-3-7.1-6.9-7.2c-3.9-0.1-7.1,3-7.2,6.9l-2.2,115.2
			C296.7,331.5,299.8,334.7,303.7,334.8z"/>
	</g>
</g>
</svg>
